<?xml version="1.0" encoding="UTF-8"?>
<!--Generator: Apple Native CoreSVG 149-->
<!DOCTYPE svg
PUBLIC "-//W3C//DTD SVG 1.1//EN"
       "http://www.w3.org/Graphics/SVG/1.1/DTD/svg11.dtd">
<svg version="1.1" xmlns="http://www.w3.org/2000/svg" xmlns:xlink="http://www.w3.org/1999/xlink" width="3300" height="2200">
 <!--glyph: "", point size: 100.0, font version: "17.0d9e1", template writer version: "59"-->
 <g id="Notes">
  <rect height="2200" id="artboard" style="fill:white;opacity:1" width="3300" x="0" y="0"/>
  <line style="fill:none;stroke:black;opacity:1;stroke-width:0.5;" x1="263" x2="3036" y1="292" y2="292"/>
  <text style="stroke:none;fill:black;font-family:sans-serif;font-size:13;font-weight:bold;" transform="matrix(1 0 0 1 263 322)">Weight/Scale Variations</text>
  <text style="stroke:none;fill:black;font-family:sans-serif;font-size:13;text-anchor:middle;" transform="matrix(1 0 0 1 559.711 322)">Ultralight</text>
  <text style="stroke:none;fill:black;font-family:sans-serif;font-size:13;text-anchor:middle;" transform="matrix(1 0 0 1 856.422 322)">Thin</text>
  <text style="stroke:none;fill:black;font-family:sans-serif;font-size:13;text-anchor:middle;" transform="matrix(1 0 0 1 1153.13 322)">Light</text>
  <text style="stroke:none;fill:black;font-family:sans-serif;font-size:13;text-anchor:middle;" transform="matrix(1 0 0 1 1449.84 322)">Regular</text>
  <text style="stroke:none;fill:black;font-family:sans-serif;font-size:13;text-anchor:middle;" transform="matrix(1 0 0 1 1746.56 322)">Medium</text>
  <text style="stroke:none;fill:black;font-family:sans-serif;font-size:13;text-anchor:middle;" transform="matrix(1 0 0 1 2043.27 322)">Semibold</text>
  <text style="stroke:none;fill:black;font-family:sans-serif;font-size:13;text-anchor:middle;" transform="matrix(1 0 0 1 2339.98 322)">Bold</text>
  <text style="stroke:none;fill:black;font-family:sans-serif;font-size:13;text-anchor:middle;" transform="matrix(1 0 0 1 2636.69 322)">Heavy</text>
  <text style="stroke:none;fill:black;font-family:sans-serif;font-size:13;text-anchor:middle;" transform="matrix(1 0 0 1 2933.4 322)">Black</text>
  <line style="fill:none;stroke:black;opacity:1;stroke-width:0.5;" x1="263" x2="3036" y1="1903" y2="1903"/>
  <g transform="matrix(1 0 0 1 263 1933)">
   <path d="M9.24805 0.830078Q10.8691 0.830078 12.2949 0.214844Q13.7207-0.400391 14.8096-1.49414Q15.8984-2.58789 16.5186-4.01367Q17.1387-5.43945 17.1387-7.05078Q17.1387-8.66211 16.5186-10.0879Q15.8984-11.5137 14.8047-12.6074Q13.7109-13.7012 12.2852-14.3164Q10.8594-14.9316 9.23828-14.9316Q7.62695-14.9316 6.20117-14.3164Q4.77539-13.7012 3.69141-12.6074Q2.60742-11.5137 1.9873-10.0879Q1.36719-8.66211 1.36719-7.05078Q1.36719-5.43945 1.9873-4.01367Q2.60742-2.58789 3.69629-1.49414Q4.78516-0.400391 6.21094 0.214844Q7.63672 0.830078 9.24805 0.830078ZM9.24805-0.654297Q7.91992-0.654297 6.7627-1.14746Q5.60547-1.64062 4.73145-2.51953Q3.85742-3.39844 3.36426-4.56055Q2.87109-5.72266 2.87109-7.05078Q2.87109-8.37891 3.35938-9.54102Q3.84766-10.7031 4.72168-11.582Q5.5957-12.4609 6.75293-12.9541Q7.91016-13.4473 9.23828-13.4473Q10.5762-13.4473 11.7334-12.9541Q12.8906-12.4609 13.7695-11.582Q14.6484-10.7031 15.1465-9.54102Q15.6445-8.37891 15.6445-7.05078Q15.6445-5.72266 15.1514-4.56055Q14.6582-3.39844 13.7842-2.51953Q12.9102-1.64062 11.748-1.14746Q10.5859-0.654297 9.24805-0.654297ZM5.83984-7.04102Q5.83984-6.71875 6.04492-6.51855Q6.25-6.31836 6.5918-6.31836L8.50586-6.31836L8.50586-4.39453Q8.50586-4.0625 8.70605-3.85742Q8.90625-3.65234 9.22852-3.65234Q9.56055-3.65234 9.76562-3.85742Q9.9707-4.0625 9.9707-4.39453L9.9707-6.31836L11.8945-6.31836Q12.2266-6.31836 12.4316-6.51855Q12.6367-6.71875 12.6367-7.04102Q12.6367-7.37305 12.4316-7.57812Q12.2266-7.7832 11.8945-7.7832L9.9707-7.7832L9.9707-9.69727Q9.9707-10.0391 9.76562-10.2441Q9.56055-10.4492 9.22852-10.4492Q8.90625-10.4492 8.70605-10.2441Q8.50586-10.0391 8.50586-9.69727L8.50586-7.7832L6.5918-7.7832Q6.25-7.7832 6.04492-7.57812Q5.83984-7.37305 5.83984-7.04102Z"/>
  </g>
  <g transform="matrix(1 0 0 1 281.867 1933)">
   <path d="M11.709 2.91016Q13.75 2.91016 15.5518 2.12891Q17.3535 1.34766 18.7305-0.0292969Q20.1074-1.40625 20.8887-3.20801Q21.6699-5.00977 21.6699-7.05078Q21.6699-9.0918 20.8887-10.8936Q20.1074-12.6953 18.7305-14.0723Q17.3535-15.4492 15.5469-16.2305Q13.7402-17.0117 11.6992-17.0117Q9.6582-17.0117 7.85645-16.2305Q6.05469-15.4492 4.68262-14.0723Q3.31055-12.6953 2.5293-10.8936Q1.74805-9.0918 1.74805-7.05078Q1.74805-5.00977 2.5293-3.20801Q3.31055-1.40625 4.6875-0.0292969Q6.06445 1.34766 7.86621 2.12891Q9.66797 2.91016 11.709 2.91016ZM11.709 1.25Q9.98047 1.25 8.47656 0.605469Q6.97266-0.0390625 5.83496-1.17676Q4.69727-2.31445 4.05762-3.81836Q3.41797-5.32227 3.41797-7.05078Q3.41797-8.7793 4.05762-10.2832Q4.69727-11.7871 5.83008-12.9297Q6.96289-14.0723 8.4668-14.7119Q9.9707-15.3516 11.6992-15.3516Q13.4277-15.3516 14.9316-14.7119Q16.4355-14.0723 17.5781-12.9297Q18.7207-11.7871 19.3652-10.2832Q20.0098-8.7793 20.0098-7.05078Q20.0098-5.32227 19.3701-3.81836Q18.7305-2.31445 17.5928-1.17676Q16.4551-0.0390625 14.9463 0.605469Q13.4375 1.25 11.709 1.25ZM7.39258-7.04102Q7.39258-6.68945 7.62695-6.46484Q7.86133-6.24023 8.23242-6.24023L10.8789-6.24023L10.8789-3.57422Q10.8789-3.21289 11.1035-2.9834Q11.3281-2.75391 11.6797-2.75391Q12.0508-2.75391 12.2852-2.9834Q12.5195-3.21289 12.5195-3.57422L12.5195-6.24023L15.1758-6.24023Q15.5371-6.24023 15.7715-6.46484Q16.0059-6.68945 16.0059-7.04102Q16.0059-7.41211 15.7715-7.6416Q15.5371-7.87109 15.1758-7.87109L12.5195-7.87109L12.5195-10.5176Q12.5195-10.8984 12.2852-11.1279Q12.0508-11.3574 11.6797-11.3574Q11.3281-11.3574 11.1035-11.1279Q10.8789-10.8984 10.8789-10.5176L10.8789-7.87109L8.23242-7.87109Q7.85156-7.87109 7.62207-7.6416Q7.39258-7.41211 7.39258-7.04102Z"/>
  </g>
  <g transform="matrix(1 0 0 1 305.646 1933)">
   <path d="M14.9707 5.66406Q17.0605 5.66406 18.96 5.01465Q20.8594 4.36523 22.4512 3.19336Q24.043 2.02148 25.2197 0.429688Q26.3965-1.16211 27.0459-3.06641Q27.6953-4.9707 27.6953-7.05078Q27.6953-9.14062 27.0459-11.04Q26.3965-12.9395 25.2197-14.5312Q24.043-16.123 22.4512-17.2998Q20.8594-18.4766 18.9551-19.126Q17.0508-19.7754 14.9609-19.7754Q12.8711-19.7754 10.9717-19.126Q9.07227-18.4766 7.48535-17.2998Q5.89844-16.123 4.72168-14.5312Q3.54492-12.9395 2.90039-11.04Q2.25586-9.14062 2.25586-7.05078Q2.25586-4.9707 2.90527-3.06641Q3.55469-1.16211 4.72656 0.429688Q5.89844 2.02148 7.49023 3.19336Q9.08203 4.36523 10.9814 5.01465Q12.8809 5.66406 14.9707 5.66406ZM14.9707 3.84766Q13.1641 3.84766 11.5283 3.2959Q9.89258 2.74414 8.53516 1.74805Q7.17773 0.751953 6.17676-0.610352Q5.17578-1.97266 4.62891-3.6084Q4.08203-5.24414 4.08203-7.05078Q4.08203-8.86719 4.62891-10.5029Q5.17578-12.1387 6.17188-13.501Q7.16797-14.8633 8.52539-15.8594Q9.88281-16.8555 11.5186-17.4023Q13.1543-17.9492 14.9609-17.9492Q16.7773-17.9492 18.4131-17.4023Q20.0488-16.8555 21.4111-15.8594Q22.7734-14.8633 23.7695-13.501Q24.7656-12.1387 25.3174-10.5029Q25.8691-8.86719 25.8691-7.05078Q25.8789-5.24414 25.332-3.6084Q24.7852-1.97266 23.7842-0.610352Q22.7832 0.751953 21.4209 1.74805Q20.0586 2.74414 18.4229 3.2959Q16.7871 3.84766 14.9707 3.84766ZM9.45312-7.04102Q9.45312-6.66016 9.71191-6.41113Q9.9707-6.16211 10.3711-6.16211L14.0625-6.16211L14.0625-2.46094Q14.0625-2.06055 14.3115-1.80664Q14.5605-1.55273 14.9414-1.55273Q15.3516-1.55273 15.6055-1.80664Q15.8594-2.06055 15.8594-2.46094L15.8594-6.16211L19.5605-6.16211Q19.9609-6.16211 20.2148-6.41113Q20.4688-6.66016 20.4688-7.04102Q20.4688-7.45117 20.2148-7.70508Q19.9609-7.95898 19.5605-7.95898L15.8594-7.95898L15.8594-11.6504Q15.8594-12.0605 15.6055-12.3145Q15.3516-12.5684 14.9414-12.5684Q14.5605-12.5684 14.3115-12.3096Q14.0625-12.0508 14.0625-11.6504L14.0625-7.95898L10.3711-7.95898Q9.96094-7.95898 9.70703-7.70508Q9.45312-7.45117 9.45312-7.04102Z"/>
  </g>
  <text style="stroke:none;fill:black;font-family:sans-serif;font-size:13;font-weight:bold;" transform="matrix(1 0 0 1 263 1953)">Design Variations</text>
  <text style="stroke:none;fill:black;font-family:sans-serif;font-size:13;" transform="matrix(1 0 0 1 263 1971)">Symbols are supported in up to nine weights and three scales.</text>
  <text style="stroke:none;fill:black;font-family:sans-serif;font-size:13;" transform="matrix(1 0 0 1 263 1989)">For optimal layout with text and other symbols, vertically align</text>
  <text style="stroke:none;fill:black;font-family:sans-serif;font-size:13;" transform="matrix(1 0 0 1 263 2007)">symbols with the adjacent text.</text>
  <line style="fill:none;stroke:#00AEEF;stroke-width:0.5;opacity:1.0;" x1="776" x2="776" y1="1919" y2="1933"/>
  <g transform="matrix(1 0 0 1 776 1933)">
   <path d="M3.31055 0.15625Q3.70117 0.15625 3.91602-0.00976562Q4.13086-0.175781 4.26758-0.585938L5.52734-4.0332L11.2891-4.0332L12.5488-0.585938Q12.6855-0.175781 12.9004-0.00976562Q13.1152 0.15625 13.4961 0.15625Q13.8867 0.15625 14.1162-0.0585938Q14.3457-0.273438 14.3457-0.644531Q14.3457-0.869141 14.2383-1.17188L9.6582-13.3691Q9.48242-13.8184 9.17969-14.043Q8.87695-14.2676 8.4082-14.2676Q7.5-14.2676 7.17773-13.3789L2.59766-1.16211Q2.49023-0.859375 2.49023-0.634766Q2.49023-0.263672 2.70996-0.0537109Q2.92969 0.15625 3.31055 0.15625ZM6.00586-5.51758L8.37891-12.0898L8.42773-12.0898L10.8008-5.51758Z"/>
  </g>
  <line style="fill:none;stroke:#00AEEF;stroke-width:0.5;opacity:1.0;" x1="793.197" x2="793.197" y1="1919" y2="1933"/>
  <text style="stroke:none;fill:black;font-family:sans-serif;font-size:13;font-weight:bold;" transform="matrix(1 0 0 1 776 1953)">Margins</text>
  <text style="stroke:none;fill:black;font-family:sans-serif;font-size:13;" transform="matrix(1 0 0 1 776 1971)">Leading and trailing margins on the left and right side of each symbol</text>
  <text style="stroke:none;fill:black;font-family:sans-serif;font-size:13;" transform="matrix(1 0 0 1 776 1989)">can be adjusted by modifying the x-location of the margin guidelines.</text>
  <text style="stroke:none;fill:black;font-family:sans-serif;font-size:13;" transform="matrix(1 0 0 1 776 2007)">Modifications are automatically applied proportionally to all</text>
  <text style="stroke:none;fill:black;font-family:sans-serif;font-size:13;" transform="matrix(1 0 0 1 776 2025)">scales and weights.</text>
  <g transform="matrix(1 0 0 1 1289 1933)">
   <path d="M2.8418 1.86523L4.54102 3.57422Q5.18555 4.22852 5.90332 4.17969Q6.62109 4.13086 7.31445 3.35938L18.0078-8.42773L17.041-9.4043L6.42578 2.27539Q6.16211 2.57812 5.89355 2.61719Q5.625 2.65625 5.27344 2.30469L4.10156 1.14258Q3.75 0.791016 3.79395 0.522461Q3.83789 0.253906 4.14062-0.0195312L15.6152-10.8203L14.6387-11.7871L3.04688-0.898438Q2.30469-0.214844 2.25098 0.498047Q2.19727 1.21094 2.8418 1.86523ZM9.25781-16.3281Q8.94531-16.0254 8.90625-15.6348Q8.86719-15.2441 9.04297-14.9512Q9.21875-14.6777 9.55566-14.541Q9.89258-14.4043 10.3809-14.5215Q11.4746-14.7754 12.5977-14.7314Q13.7207-14.6875 14.7949-13.9844L14.209-12.5293Q13.9551-11.9043 14.0674-11.4404Q14.1797-10.9766 14.5801-10.5664L16.875-8.25195Q17.2363-7.88086 17.5781-7.82227Q17.9199-7.76367 18.3398-7.8418L19.4043-8.03711L20.0684-7.36328L20.0293-6.80664Q20-6.43555 20.1221-6.12305Q20.2441-5.81055 20.6055-5.44922L21.3672-4.70703Q21.7285-4.3457 22.1533-4.33105Q22.5781-4.31641 22.9297-4.66797L25.8398-7.58789Q26.1914-7.93945 26.1816-8.35449Q26.1719-8.76953 25.8105-9.13086L25.0391-9.89258Q24.6875-10.2539 24.3799-10.3857Q24.0723-10.5176 23.7109-10.4883L23.1348-10.4395L22.4902-11.0742L22.7344-12.1973Q22.832-12.6172 22.6953-12.9834Q22.5586-13.3496 22.1191-13.7891L19.9219-15.9766Q18.6719-17.2168 17.2607-17.8369Q15.8496-18.457 14.4189-18.4814Q12.9883-18.5059 11.665-17.959Q10.3418-17.4121 9.25781-16.3281ZM10.752-15.957Q11.6602-16.6211 12.7002-16.9043Q13.7402-17.1875 14.8047-17.085Q15.8691-16.9824 16.8701-16.5137Q17.8711-16.0449 18.7012-15.2051L21.1328-12.793Q21.3086-12.6172 21.3525-12.4512Q21.3965-12.2852 21.3379-12.0312L21.0156-10.5469L22.5195-9.0625L23.5059-9.12109Q23.6914-9.13086 23.7891-9.09668Q23.8867-9.0625 24.0332-8.91602L24.6094-8.33984L22.168-5.89844L21.5918-6.47461Q21.4453-6.62109 21.4062-6.71875Q21.3672-6.81641 21.377-7.01172L21.4453-7.98828L19.9512-9.47266L18.4277-9.21875Q18.1836-9.16992 18.042-9.2041Q17.9004-9.23828 17.7148-9.41406L15.7129-11.416Q15.5176-11.5918 15.4932-11.7529Q15.4688-11.9141 15.5859-12.1875L16.4648-14.2773Q15.293-15.3711 13.8281-15.791Q12.3633-16.2109 10.8398-15.7617Q10.7227-15.7324 10.6885-15.8057Q10.6543-15.8789 10.752-15.957Z"/>
  </g>
  <text style="stroke:none;fill:black;font-family:sans-serif;font-size:13;font-weight:bold;" transform="matrix(1 0 0 1 1289 1953)">Exporting</text>
  <text style="stroke:none;fill:black;font-family:sans-serif;font-size:13;" transform="matrix(1 0 0 1 1289 1971)">Symbols should be outlined when exporting to ensure the</text>
  <text style="stroke:none;fill:black;font-family:sans-serif;font-size:13;" transform="matrix(1 0 0 1 1289 1989)">design is preserved when submitting to Xcode.</text>
  <text id="template-version" style="stroke:none;fill:black;font-family:sans-serif;font-size:13;text-anchor:end;" transform="matrix(1 0 0 1 3036 1933)">Template v.3.0</text>
  <text style="stroke:none;fill:black;font-family:sans-serif;font-size:13;text-anchor:end;" transform="matrix(1 0 0 1 3036 1951)">Requires Xcode 13 or greater</text>
  <text id="descriptive-name" style="stroke:none;fill:black;font-family:sans-serif;font-size:13;text-anchor:end;" transform="matrix(1 0 0 1 3036 1969)">Generated from homeIconFile</text>
  <text style="stroke:none;fill:black;font-family:sans-serif;font-size:13;text-anchor:end;" transform="matrix(1 0 0 1 3036 1987)">Typeset at 100 points</text>
  <text style="stroke:none;fill:black;font-family:sans-serif;font-size:13;" transform="matrix(1 0 0 1 263 726)">Small</text>
  <text style="stroke:none;fill:black;font-family:sans-serif;font-size:13;" transform="matrix(1 0 0 1 263 1156)">Medium</text>
  <text style="stroke:none;fill:black;font-family:sans-serif;font-size:13;" transform="matrix(1 0 0 1 263 1586)">Large</text>
 </g>
 <g id="Guides">
  <g id="H-reference" style="fill:#27AAE1;stroke:none;" transform="matrix(1 0 0 1 339 696)">
   <path d="M0.993347 0L3.6377 0L29.3282-67.1326L30.0301-67.1326L30.0301-70.459L28.1227-70.459ZM11.6882-24.4797L46.9818-24.4797L46.2311-26.7288L12.4382-26.7288ZM55.1193 0L57.7637 0L30.6381-70.459L29.4327-70.459L29.4327-67.1326Z"/>
  </g>
  <line id="Baseline-S" style="fill:none;stroke:#27AAE1;opacity:1;stroke-width:0.5;" x1="263" x2="3036" y1="696" y2="696"/>
  <line id="Capline-S" style="fill:none;stroke:#27AAE1;opacity:1;stroke-width:0.5;" x1="263" x2="3036" y1="625.541" y2="625.541"/>
  <g id="H-reference" style="fill:#27AAE1;stroke:none;" transform="matrix(1 0 0 1 339 1126)">
   <path d="M0.993347 0L3.6377 0L29.3282-67.1326L30.0301-67.1326L30.0301-70.459L28.1227-70.459ZM11.6882-24.4797L46.9818-24.4797L46.2311-26.7288L12.4382-26.7288ZM55.1193 0L57.7637 0L30.6381-70.459L29.4327-70.459L29.4327-67.1326Z"/>
  </g>
  <line id="Baseline-M" style="fill:none;stroke:#27AAE1;opacity:1;stroke-width:0.5;" x1="263" x2="3036" y1="1126" y2="1126"/>
  <line id="Capline-M" style="fill:none;stroke:#27AAE1;opacity:1;stroke-width:0.5;" x1="263" x2="3036" y1="1055.54" y2="1055.54"/>
  <g id="H-reference" style="fill:#27AAE1;stroke:none;" transform="matrix(1 0 0 1 339 1556)">
   <path d="M0.993347 0L3.6377 0L29.3282-67.1326L30.0301-67.1326L30.0301-70.459L28.1227-70.459ZM11.6882-24.4797L46.9818-24.4797L46.2311-26.7288L12.4382-26.7288ZM55.1193 0L57.7637 0L30.6381-70.459L29.4327-70.459L29.4327-67.1326Z"/>
  </g>
  <line id="Baseline-L" style="fill:none;stroke:#27AAE1;opacity:1;stroke-width:0.5;" x1="263" x2="3036" y1="1556" y2="1556"/>
  <line id="Capline-L" style="fill:none;stroke:#27AAE1;opacity:1;stroke-width:0.5;" x1="263" x2="3036" y1="1485.54" y2="1485.54"/>
  <line id="left-margin-Regular-M" style="fill:none;stroke:#00AEEF;stroke-width:0.5;opacity:1.0;" x1="1380.11" x2="1380.11" y1="1030.73" y2="1150.14"/>
  <line id="right-margin-Regular-M" style="fill:none;stroke:#00AEEF;stroke-width:0.5;opacity:1.0;" x1="1519.58" x2="1519.58" y1="1030.73" y2="1150.14"/>
 </g>
 <g id="Symbols">
  <g id="Black-L" transform="matrix(1 0 0 1 2842.01 1556)">
   <path d="M181.893 5.12199C180.293 6.72128 178.2 7.54214 176.184 7.54214C174.09 7.54214 171.997 6.72128 170.475 5.12199L90.3425-74.9333L10.2898 5.12199C8.69054 6.72128 6.59716 7.54214 4.58094 7.54214C2.56473 7.54214 0.394178 6.72128-1.12794 5.12199C-4.37158 1.87835-4.37158-3.17173-1.12794-6.37293L84.0997-91.6005C84.2644-91.7652 84.4291-91.9299 84.5938-92.2142C86.193-93.8135 88.3289-94.6344 90.4223-94.6344C92.5156-94.6344 94.609-93.8135 96.2508-92.2142C96.4155-92.0495 96.5802-91.8848 96.7449-91.6005L181.972-6.37293C185.091-3.29398 185.091 1.87835 181.893 5.12199ZM96.6226-39.4205C94.9782-41.2269 92.6005-42.17 90.3-42.0053C88.0419-42.1674 85.7414-41.1845 83.9774-39.4205L57.789-11.0936C54.7101-7.84996 54.8748-2.67763 58.2805 0.401316C59.8797 1.83853 61.8509 2.53715 63.7822 2.53715C65.918 2.53715 68.1337 1.71365 69.7754-0.0503356L90.3849-22.2618L110.994-0.0503356C112.594 1.71365 114.732 2.53715 116.988 2.53715C118.959 2.53715 120.89 1.87835 122.489 0.401316C125.733-2.67763 126.017-7.84996 122.981-11.0936L96.6226-39.4205Z"/>
  </g>
  <g id="Heavy-L" transform="matrix(1 0 0 1 2545.66 1556)">
   <path d="M180.436 4.36881C178.875 5.93014 176.819 6.74128 174.794 6.74128C172.739 6.74128 170.683 5.93014 169.153 4.36881L90.2969-74.4565L11.4839 4.36881C9.92262 5.93014 7.86719 6.74128 5.8422 6.74128C3.81721 6.74128 1.73135 5.93014 0.200454 4.36881C-2.99551 1.17285-2.99551-3.8101 0.200454-6.94511L84.1124-90.8571C84.2771-91.0218 84.4418-91.1865 84.6065-91.4426C86.1678-93.0039 88.2842-93.815 90.3396-93.815C92.3951-93.815 94.4505-93.0039 96.0728-91.4426C96.2375-91.2779 96.4022-91.1132 96.5669-90.8571L180.479-6.94511C183.559-3.91384 183.559 1.17285 180.436 4.36881ZM96.4631-39.4779C94.8285-41.2649 92.517-42.1798 90.2359-42.0151C88.0158-42.1674 85.7347-41.2039 84.0087-39.4779L58.2582-11.5987C55.2269-8.40269 55.3916-3.316 58.7399-0.284731C60.3012 1.12426 62.2529 1.83165 64.156 1.83165C66.2724 1.83165 68.4316 1.00815 70.0538-0.717878L90.3578-22.5955L110.662-0.717878C112.223 1.00815 114.352 1.83165 116.56 1.83165C118.511 1.83165 120.414 1.17285 121.976-0.284731C125.172-3.316 125.428-8.40269 122.457-11.5987L96.4631-39.4779Z"/>
  </g>
  <g id="Bold-L" transform="matrix(1 0 0 1 2249.4 1556)">
   <path d="M178.392 3.34355C176.879 4.85652 174.872 5.65089 172.849 5.65089C170.842 5.65089 168.835 4.85652 167.306 3.34355L90.1729-73.8052L13.0533 3.34355C11.5403 4.85652 9.53323 5.65089 7.51021 5.65089C5.48719 5.65089 3.49606 4.85652 1.96714 3.34355C-1.1637 0.21271-1.1637-4.67156 1.96714-7.72664L84.0891-89.8486C84.2538-90.0133 84.4185-90.178 84.5832-90.4025C86.0962-91.9155 88.179-92.7098 90.1861-92.7098C92.1931-92.7098 94.2002-91.9155 95.7889-90.4025C95.9536-90.2378 96.1183-90.0731 96.283-89.8486L178.405-7.72664C181.418-4.7605 181.418 0.21271 178.392 3.34355ZM96.1941-39.5598C94.5762-41.3132 92.3446-42.1965 90.0971-42.0318C87.9253-42.1674 85.6778-41.2375 84.0001-39.5598L58.8338-12.2815C55.8677-9.15067 56.0324-4.17746 59.2988-1.21132C60.8118 0.166088 62.7299 0.87151 64.6014 0.87151C66.6842 0.87151 68.7802 0.0480096 70.369-1.62966L90.2486-23.0514L110.128-1.62966C111.641 0.0480096 113.753 0.87151 115.896 0.87151C117.814 0.87151 119.686 0.21271 121.198-1.21132C124.329-4.17746 124.554-9.15067 121.663-12.2815L96.1941-39.5598Z"/>
  </g>
  <g id="Semibold-L" transform="matrix(1 0 0 1 1953.01 1556)">
   <path d="M176.982 2.63674C175.503 4.11637 173.529 4.89918 171.507 4.89918C169.534 4.89918 167.56 4.11637 166.032 2.63674L90.0874-73.3562L14.1352 2.63674C12.6555 4.11637 10.6818 4.89918 8.66012 4.89918C6.63846 4.89918 4.71264 4.11637 3.18508 2.63674C0.0991411-0.449204 0.0991411-5.26545 3.18508-8.26542L84.073-89.1533C84.2377-89.318 84.4024-89.4827 84.5671-89.6855C86.0467-91.1651 88.1064-91.9479 90.0802-91.9479C92.0539-91.9479 94.0277-91.1651 95.5933-89.6855C95.758-89.5208 95.9227-89.3561 96.0874-89.1533L176.975-8.26542C179.942-5.34418 179.942-0.449204 176.982 2.63674ZM96.0086-39.6163C94.4023-41.3466 92.2258-42.2081 90.0014-42.0434C87.863-42.1674 85.6386-41.2606 83.9943-39.6163L59.2307-12.7523C56.3094-9.66632 56.4741-4.77135 59.6841-1.85011C61.1637-0.494468 63.0587 0.209596 64.9084 0.209596C66.9681 0.209596 69.0206-0.613904 70.5862-2.25824L90.1734-23.3657L109.761-2.25824C111.24-0.613904 113.341 0.209596 115.438 0.209596C117.333 0.209596 119.183-0.449204 120.663-1.85011C123.749-4.77135 123.951-9.66632 121.116-12.7523L96.0086-39.6163Z"/>
  </g>
  <g id="Medium-L" transform="matrix(1 0 0 1 1656.54 1556)">
   <path d="M175.914 2.1008C174.46 3.55516 172.511 4.3292 170.49 4.3292C168.542 4.3292 166.594 3.55516 165.067 2.1008L90.0226-73.0158L14.9555 2.1008C13.5011 3.55516 11.5527 4.3292 9.53204 4.3292C7.5114 4.3292 5.63511 3.55516 4.10858 2.1008C1.05668-0.951094 1.05668-5.71576 4.10858-8.67395L84.0608-88.6262C84.2255-88.7909 84.3902-88.9556 84.5549-89.1418C86.0093-90.5962 88.0514-91.3702 89.9999-91.3702C91.9483-91.3702 93.8968-90.5962 95.4449-89.1418C95.6096-88.9771 95.7743-88.8124 95.939-88.6262L175.891-8.67395C178.823-5.78675 178.823-0.951094 175.914 2.1008ZM95.868-39.6591C94.2704-41.3718 92.1358-42.2169 89.9289-42.0522C87.8157-42.1674 85.6089-41.2781 83.9898-39.6591L59.5316-13.1092C56.6444-10.0573 56.8091-5.22166 59.9762-2.33446C61.4306-0.995328 63.308-0.292294 65.1413-0.292294C67.1834-0.292294 69.2029-1.11579 70.751-2.73486L90.1163-23.604L109.482-2.73486C110.936-1.11579 113.028-0.292294 115.091-0.292294C116.969-0.292294 118.802-0.951094 120.256-2.33446C123.308-5.22166 123.495-10.0573 120.701-13.1092L95.868-39.6591Z"/>
  </g>
  <g id="Regular-L" transform="matrix(1 0 0 1 1360.14 1556)">
   <path d="M174.52 1.40176C173.099 2.82315 171.183 3.58575 169.164 3.58575C167.248 3.58575 165.333 2.82315 163.808 1.40176L89.9381-72.5717L16.0255 1.40176C14.6041 2.82315 12.6886 3.58575 10.6693 3.58575C8.65002 3.58575 6.83832 2.82315 5.31313 1.40176C2.30564-1.60573 2.30564-6.30312 5.31313-9.20681L84.0449-87.9386C84.2096-88.1033 84.3743-88.268 84.539-88.4327C85.9604-89.8541 87.9797-90.6167 89.8952-90.6167C91.8107-90.6167 93.7262-89.8541 95.2513-88.4327C95.416-88.268 95.5807-88.1033 95.7454-87.9386L174.477-9.20681C177.363-6.36402 177.363-1.60573 174.52 1.40176ZM95.6845-39.7149C94.0984-41.4048 92.0183-42.2283 89.8343-42.0636C87.7541-42.1674 85.5701-41.301 83.984-39.7149L59.9241-13.5748C57.0813-10.5673 57.246-5.80902 60.3572-2.96622C61.7786-1.64862 63.6332-0.946934 65.4449-0.946934C67.4642-0.946934 69.4406-1.77043 70.9658-3.35653L90.0419-23.9149L109.118-3.35653C110.539-1.77043 112.619-0.946934 114.639-0.946934C116.493-0.946934 118.305-1.60573 119.726-2.96622C122.734-5.80902 122.899-10.5673 120.16-13.5748L95.6845-39.7149Z"/>
  </g>
  <g id="Light-L" transform="matrix(1 0 0 1 1063.84 1556)">
   <path d="M171.562 0.098858C170.183 1.47822 168.309 2.19879 166.374 2.19879C164.501 2.19879 162.627 1.47822 161.186 0.098858L89.4177-71.7311L17.6907 0.098858C16.3113 1.47822 14.4379 2.19879 12.5026 2.19879C10.5674 2.19879 8.75569 1.47822 7.31455 0.098858C4.39112-2.82457 4.39112-7.35384 7.31455-10.2155L83.7767-86.6777C83.9414-86.8424 84.1061-87.0071 84.2708-87.1718C85.6502-88.5512 87.5854-89.2717 89.4589-89.2717C91.3324-89.2717 93.2058-88.5512 94.647-87.1718C94.8117-87.0071 94.9764-86.8424 95.1411-86.6777L171.603-10.2155C174.321-7.45677 174.321-2.82457 171.562 0.098858ZM95.0381-39.841C93.4941-41.4468 91.4559-42.2703 89.356-42.1056C87.3178-42.1674 85.2179-41.3851 83.6738-39.841L60.2863-14.4154C57.5276-11.4919 57.6923-6.85974 60.6775-4.10101C62.0569-2.78341 63.8274-2.16577 65.6391-2.16577C67.5743-2.16577 69.5507-2.98927 70.9919-4.53334L89.4795-24.5033L107.967-4.53334C109.346-2.98927 111.385-2.16577 113.32-2.16577C115.09-2.16577 116.902-2.82457 118.281-4.10101C121.205-6.85974 121.37-11.4919 118.673-14.4154L95.0381-39.841Z"/>
  </g>
  <g id="Thin-L" transform="matrix(1 0 0 1 767.68 1556)">
   <path d="M167.65-1.62433C166.326-0.300551 164.508 0.364429 162.684 0.364429C160.866 0.364429 159.048-0.300551 157.718-1.62433L88.7296-70.6194L19.893-1.62433C18.5693-0.300551 16.7514 0.364429 14.9273 0.364429C13.1033 0.364429 11.2916-0.300551 9.96159-1.62433C7.14933-4.43659 7.14933-8.74351 9.96159-11.5496L83.4221-85.0101C83.5868-85.1748 83.7515-85.3395 83.9162-85.5042C85.24-86.828 87.064-87.4929 88.8819-87.4929C90.6998-87.4929 92.5177-86.828 93.8476-85.5042C94.0123-85.3395 94.177-85.1748 94.3417-85.0101L167.802-11.5496C170.297-8.90203 170.297-4.43659 167.65-1.62433ZM94.1832-40.0078C92.6947-41.5024 90.7122-42.3259 88.7234-42.1612C86.7408-42.1674 84.7521-41.4962 83.2636-40.0078L60.7655-15.5271C58.1179-12.7148 58.2826-8.24941 61.1011-5.60185C62.4249-4.28425 64.0842-3.77779 65.8959-3.77779C67.72-3.77779 69.6964-4.60129 71.0263-6.08977L88.7358-25.2815L106.445-6.08977C107.769-4.60129 109.752-3.77779 111.576-3.77779C113.235-3.77779 115.047-4.43659 116.37-5.60185C119.183-8.24941 119.347-12.7148 116.706-15.5271L94.1832-40.0078Z"/>
  </g>
  <g id="Ultralight-L" transform="matrix(1 0 0 1 471.25 1556)">
   <path d="M165.646-2.50694C164.351-1.21163 162.561-0.575122 160.794-0.575122C159.005-0.575122 157.215-1.21163 155.942-2.50694L88.3771-70.05L21.0211-2.50694C19.7258-1.21163 17.9363-0.575122 16.1692-0.575122C14.4021-0.575122 12.5904-1.21163 11.3174-2.50694C8.56208-5.26226 8.56208-9.45529 11.3174-12.2329L83.2404-84.156C83.4051-84.3207 83.5698-84.4854 83.7345-84.6501C85.0299-85.9454 86.797-86.5819 88.5864-86.5819C90.3758-86.5819 92.1652-85.9454 93.4382-84.6501C93.6029-84.4854 93.7676-84.3207 93.9323-84.156L165.855-12.2329C168.237-9.64228 168.237-5.26226 165.646-2.50694ZM93.7453-40.0932C92.2853-41.5309 90.3312-42.3544 88.3994-42.1897C86.4453-42.1674 84.5135-41.5532 83.0535-40.0932L61.0109-16.0965C58.4203-13.3412 58.585-8.96119 61.318-6.37057C62.6133-5.05297 64.2158-4.60346 66.0275-4.60346C67.7946-4.60346 69.771-5.42696 71.044-6.88696L88.3548-25.6801L105.666-6.88696C106.961-5.42696 108.915-4.60346 110.682-4.60346C112.285-4.60346 114.096-5.26226 115.392-6.37057C118.147-8.96119 118.312-13.3412 115.699-16.0965L93.7453-40.0932Z"/>
  </g>
  <g id="Black-M" transform="matrix(1 0 0 1 2862.35 1126)">
   <path d="M141.771-3.50134C140.505-2.23539 138.856-1.59676 137.313-1.59676C135.664-1.59676 134.016-2.23539 132.855-3.50134L69.9608-66.2902L7.1713-3.50134C5.90535-2.23539 4.25659-1.59676 2.71348-1.59676C1.17036-1.59676-0.584037-2.23539-1.74435-3.50134C-4.28693-6.04392-4.28693-9.99135-1.74435-12.5226L65.1082-79.3752C65.2358-79.5028 65.3634-79.6304 65.491-79.875C66.757-81.1409 68.417-81.7795 70.0658-81.7795C71.7146-81.7795 73.3633-81.1409 74.6406-79.875C74.7682-79.7474 74.8958-79.6198 75.0234-79.3752L141.876-12.5226C144.303-10.1077 144.303-6.04392 141.771-3.50134ZM74.9071-38.4488C73.6304-39.8536 71.7371-40.6086 69.9495-40.481C68.1731-40.6092 66.3855-39.8424 64.9919-38.4488L44.4174-16.2149C42.0024-13.6723 42.13-9.60855 44.8009-7.19357C46.0668-6.05584 47.5993-5.53352 49.1198-5.53352C50.7798-5.53352 52.5449-6.17152 53.8221-7.56508L69.9721-24.9803L86.122-7.56508C87.388-6.17152 89.0474-5.53352 90.8244-5.53352C92.3568-5.53352 93.8773-6.04392 95.1433-7.19357C97.6859-9.60855 97.9304-13.6723 95.5267-16.2149L74.9071-38.4488Z"/>
  </g>
  <g id="Heavy-M" transform="matrix(1 0 0 1 2565.95 1126)">
   <path d="M140.62-4.11743C139.387-2.8847 137.772-2.25171 136.212-2.25171C134.597-2.25171 132.981-2.8847 131.804-4.11743L69.9642-65.9016L8.18502-4.11743C6.95229-2.8847 5.33676-2.25171 3.77731-2.25171C2.21786-2.25171 0.546253-2.8847-0.630395-4.11743C-3.13412-6.62115-3.13412-10.5185-0.630395-12.9889L65.1455-78.7648C65.2731-78.8924 65.4007-79.02 65.5283-79.2369C66.761-80.4696 68.4098-81.1026 70.0253-81.1026C71.6408-81.1026 73.2564-80.4696 74.5223-79.2369C74.6499-79.1093 74.7775-78.9817 74.9051-78.7648L140.681-12.9889C143.085-10.6128 143.085-6.62115 140.62-4.11743ZM74.8108-38.4933C73.5398-39.8869 71.7073-40.6142 69.931-40.4866C68.1878-40.6092 66.4114-39.8536 65.0511-38.4933L44.8427-16.631C42.4665-14.1273 42.5941-10.1357 45.2204-7.75954C46.4532-6.6494 47.9744-6.11075 49.4673-6.11075C51.1161-6.11075 52.826-6.74875 54.0919-8.10908L69.9975-25.2523L85.903-8.10908C87.1357-6.74875 88.7895-6.11075 90.5276-6.11075C92.0488-6.11075 93.5418-6.62115 94.7745-7.75954C97.2782-10.1357 97.4951-14.1273 95.1523-16.631L74.8108-38.4933Z"/>
  </g>
  <g id="Bold-M" transform="matrix(1 0 0 1 2269.58 1126)">
   <path d="M139.332-4.80662C138.137-3.61106 136.558-2.98436 134.981-2.98436C133.402-2.98436 131.824-3.61106 130.629-4.80662L69.968-65.4669L9.31901-4.80662C8.12345-3.61106 6.54509-2.98436 4.96737-2.98436C3.38965-2.98436 1.81065-3.61106 0.615724-4.80662C-1.84453-7.26687-1.84453-11.1081 0.615724-13.5105L65.1871-78.0819C65.3147-78.2095 65.4423-78.3371 65.5699-78.5232C66.7654-79.7187 68.4016-80.3454 69.98-80.3454C71.5583-80.3454 73.1367-79.7187 74.3901-78.5232C74.5177-78.3956 74.6453-78.268 74.7729-78.0819L139.344-13.5105C141.723-11.1779 141.723-7.26687 139.332-4.80662ZM74.7031-38.5431C73.4384-39.924 71.674-40.6205 69.9102-40.4929C68.2042-40.6092 66.4405-39.8662 65.1173-38.5431L45.3183-17.0966C42.9857-14.6363 43.1133-10.7253 45.6898-8.39266C46.8854-7.31339 48.394-6.75647 49.856-6.75647C51.4922-6.75647 53.1404-7.39447 54.3937-8.71763L70.0259-25.5566L85.658-8.71763C86.8535-7.39447 88.501-6.75647 90.1957-6.75647C91.7043-6.75647 93.1663-7.26687 94.3619-8.39266C96.8222-10.7253 97.0082-14.6363 94.7334-17.0966L74.7031-38.5431Z"/>
  </g>
  <g id="Semibold-M" transform="matrix(1 0 0 1 1973.11 1126)">
   <path d="M138.445-5.28174C137.275-4.1118 135.722-3.48945 134.132-3.48945C132.579-3.48945 131.026-4.1118 129.819-5.28174L69.9707-65.1673L10.1008-5.28174C8.93084-4.1118 7.3781-3.48945 5.78778-3.48945C4.19746-3.48945 2.68231-4.1118 1.47479-5.28174C-0.955498-7.71202-0.955498-11.5146 1.47479-13.8701L65.2158-77.6111C65.3434-77.7387 65.471-77.8663 65.5986-78.0311C66.7685-79.201 68.396-79.8234 69.9487-79.8234C71.5015-79.8234 73.0542-79.201 74.2989-78.0311C74.4265-77.9035 74.5541-77.7759 74.6817-77.6111L138.423-13.8701C140.785-11.5674 140.785-7.71202 138.445-5.28174ZM74.6289-38.5774C73.3685-39.9497 71.651-40.6248 69.8959-40.4972C68.2156-40.6092 66.4605-39.8749 65.1629-38.5774L45.6463-17.4175C43.3436-14.9872 43.4712-11.1318 46.0134-8.82913C47.1833-7.77114 48.6832-7.20162 50.124-7.20162C51.7515-7.20162 53.3571-7.83962 54.6018-9.13716L70.0454-25.7664L85.4891-9.13716C86.659-7.83962 88.3022-7.20162 89.9669-7.20162C91.4668-7.20162 92.9075-7.71202 94.0775-8.82913C96.5078-11.1318 96.6726-14.9872 94.4446-17.4175L74.6289-38.5774Z"/>
  </g>
  <g id="Medium-M" transform="matrix(1 0 0 1 1676.58 1126)">
   <path d="M137.772-5.64199C136.621-4.49148 135.088-3.87242 133.488-3.87242C131.955-3.87242 130.421-4.49148 129.204-5.64199L69.9727-64.9401L10.6935-5.64199C9.54304-4.49148 8.00973-3.87242 6.40986-3.87242C4.80999-3.87242 3.34324-4.49148 2.12617-5.64199C-0.281395-8.04956-0.281395-11.8228 2.12617-14.1428L65.2375-77.2541C65.3651-77.3817 65.4927-77.5093 65.6203-77.658C66.7708-78.8085 68.3917-79.4276 69.9251-79.4276C71.4584-79.4276 72.9917-78.8085 74.2298-77.658C74.3574-77.5304 74.485-77.4028 74.6126-77.2541L137.724-14.1428C140.073-11.8628 140.073-8.04956 137.772-5.64199ZM74.5726-38.6034C73.3155-39.9691 71.6336-40.6281 69.8851-40.5005C68.2242-40.6092 66.4756-39.8815 65.1975-38.6034L45.8949-17.6609C43.6149-15.2533 43.7425-11.44 46.2588-9.16008C47.4093-8.11823 48.9026-7.53916 50.3272-7.53916C51.9482-7.53916 53.5215-8.17716 54.7596-9.45527L70.0603-25.9254L85.361-9.45527C86.5115-8.17716 88.1514-7.53916 89.7933-7.53916C91.2867-7.53916 92.7113-8.04956 93.8618-9.16008C96.2694-11.44 96.418-15.2533 94.2257-17.6609L74.5726-38.6034Z"/>
  </g>
  <g id="Regular-M" transform="matrix(1 0 0 1 1380.11 1126)">
   <path d="M136.894-6.11189C135.768-4.98672 134.261-4.37196 132.648-4.37196C131.14-4.37196 129.632-4.98672 128.403-6.11189L69.9753-64.6437L11.4667-6.11189C10.3416-4.98672 8.83359-4.37196 7.22126-4.37196C5.60893-4.37196 4.20533-4.98672 2.9758-6.11189C0.597868-8.48982 0.597868-12.2249 2.9758-14.4984L65.2659-76.7885C65.3935-76.9161 65.5211-77.0437 65.6487-77.1713C66.7739-78.2965 68.3862-78.9113 69.8942-78.9113C71.4021-78.9113 72.9101-78.2965 74.1396-77.1713C74.2672-77.0437 74.3948-76.9161 74.5224-76.7885L136.813-14.4984C139.144-12.2481 139.144-8.48982 136.894-6.11189ZM74.4992-38.6373C73.2464-39.9944 71.6109-40.6324 69.8709-40.5048C68.2354-40.6092 66.4954-39.8901 65.2427-38.6373L46.2192-17.9783C43.9689-15.6004 44.0965-11.8421 46.5788-9.59175C47.704-8.57095 49.1887-7.97942 50.5923-7.97942C52.2046-7.97942 53.7358-8.61742 54.9653-9.87018L70.0797-26.1329L85.194-9.87018C86.3191-8.61742 87.9547-7.97942 89.567-7.97942C91.0518-7.97942 92.4554-8.48982 93.5805-9.59175C95.9584-11.8421 96.086-15.6004 93.9401-17.9783L74.4992-38.6373Z"/>
  </g>
  <g id="Light-M" transform="matrix(1 0 0 1 1083.77 1126)">
   <path d="M134.242-7.28001C133.154-6.19252 131.684-5.61544 130.147-5.61544C128.677-5.61544 127.206-6.19252 126.052-7.28001L69.5088-63.8901L12.9596-7.28001C11.8722-6.19252 10.4019-5.61544 8.86491-5.61544C7.32794-5.61544 5.92434-6.19252 4.77017-7.28001C2.46761-9.58257 2.46761-13.1669 4.77017-15.4028L65.0255-75.6581C65.1531-75.7857 65.2807-75.9133 65.4083-76.0409C66.4958-77.1284 68.0327-77.7055 69.503-77.7055C70.9733-77.7055 72.4436-77.1284 73.5978-76.0409C73.7254-75.9133 73.853-75.7857 73.9806-75.6581L134.236-15.4028C136.417-13.2278 136.417-9.58257 134.242-7.28001ZM73.9196-38.7503C72.7046-40.0321 71.1067-40.6701 69.4421-40.5425C67.8442-40.6092 66.1797-39.9654 64.9646-38.7503L46.544-18.7319C44.3691-16.4294 44.4967-12.7841 46.8659-10.6091C47.9534-9.58834 49.3628-9.07217 50.7664-9.07217C52.3033-9.07217 53.8345-9.71017 54.9887-10.9253L69.5755-26.6604L84.1623-10.9253C85.2497-9.71017 86.8476-9.07217 88.3846-9.07217C89.794-9.07217 91.1976-9.58257 92.285-10.6091C94.5876-12.7841 94.7152-16.4294 92.6069-18.7319L73.9196-38.7503Z"/>
  </g>
  <g id="Thin-M" transform="matrix(1 0 0 1 787.551 1126)">
   <path d="M130.734-8.82493C129.697-7.78729 128.276-7.26004 126.839-7.26004C125.418-7.26004 123.998-7.78729 122.943-8.82493L68.8918-62.8933L14.9342-8.82493C13.8965-7.78729 12.4761-7.26004 11.0388-7.26004C9.60148-7.26004 8.19788-7.78729 7.14338-8.82493C4.94049-11.0278 4.94049-14.4128 7.14338-16.5989L64.7075-74.163C64.8351-74.2906 64.9627-74.4182 65.0903-74.5458C66.128-75.5835 67.5653-76.1107 68.9857-76.1107C70.4062-76.1107 71.8266-75.5835 72.8811-74.5458C73.0087-74.4182 73.1363-74.2906 73.2639-74.163L130.828-16.5989C132.809-14.5236 132.809-11.0278 130.734-8.82493ZM73.1532-38.8999C71.9879-40.082 70.4399-40.72 68.875-40.5924C67.3269-40.6092 65.762-40.0651 64.5968-38.8999L46.9736-19.7287C44.8983-17.5258 45.0259-14.03 47.2457-11.9547C48.2833-10.9339 49.593-10.5174 50.9966-10.5174C52.4339-10.5174 53.9651-11.1554 55.0196-12.3207L68.9087-27.3581L82.7977-12.3207C83.8354-11.1554 85.3834-10.5174 86.8207-10.5174C88.1304-10.5174 89.534-11.0278 90.5717-11.9547C92.7746-14.03 92.9022-17.5258 90.8437-19.7287L73.1532-38.8999Z"/>
  </g>
  <g id="Ultralight-M" transform="matrix(1 0 0 1 491.092 1126)">
   <path d="M128.938-9.61624C127.926-8.60412 126.531-8.10239 125.144-8.10239C123.749-8.10239 122.355-8.60412 121.351-9.61624L68.5758-62.3828L15.9455-9.61624C14.9334-8.60412 13.5385-8.10239 12.1522-8.10239C10.766-8.10239 9.36237-8.60412 8.35893-9.61624C6.20709-11.7681 6.20709-15.051 8.35893-17.2115L64.5447-73.3972C64.6723-73.5248 64.7999-73.6524 64.9275-73.78C65.9396-74.7922 67.3258-75.2939 68.7208-75.2939C70.1157-75.2939 71.5106-74.7922 72.5141-73.78C72.6417-73.6524 72.7693-73.5248 72.8969-73.3972L129.083-17.2115C130.962-15.1872 130.962-11.7681 128.938-9.61624ZM72.7606-38.9764C71.6209-40.1075 70.0983-40.7455 68.5845-40.6179C67.062-40.6092 65.5481-40.1162 64.4084-38.9764L47.1937-20.2392C45.1694-18.0873 45.297-14.6682 47.4402-12.6439C48.4523-11.6231 49.7109-11.2577 51.1145-11.2577C52.5008-11.2577 54.032-11.8957 55.0354-13.0354L68.5671-27.7155L82.0988-13.0354C83.111-11.8957 84.6335-11.2577 86.0197-11.2577C87.2784-11.2577 88.682-11.7681 89.6941-12.6439C91.8459-14.6682 91.9735-18.0873 89.9406-20.2392L72.7606-38.9764Z"/>
  </g>
  <g id="Black-S" transform="matrix(1 0 0 1 2877.64 696)">
   <path d="M111.3-10.25C110.3-9.25 109-8.75 107.8-8.75C106.5-8.75 105.2-9.25 104.3-10.25L54.8-59.65L5.4-10.25C4.4-9.25 3.1-8.75 1.9-8.75C0.7-8.75-0.7-9.25-1.6-10.25C-3.6-12.25-3.6-15.35-1.6-17.35L51-69.95C51.1-70.05 51.2-70.15 51.3-70.35C52.3-71.35 53.6-71.85 54.9-71.85C56.2-71.85 57.5-71.35 58.5-70.35C58.6-70.25 58.7-70.15 58.8-69.95L111.4-17.35C113.3-15.45 113.3-12.25 111.3-10.25ZM58.7-37.75C57.7-38.85 56.2-39.45 54.8-39.35C53.4-39.45 52-38.85 50.9-37.75L34.7-20.25C32.8-18.25 32.9-15.05 35-13.15C36-12.25 37.2-11.85 38.4-11.85C39.7-11.85 41.1-12.35 42.1-13.45L54.8-27.15L67.5-13.45C68.5-12.35 69.8-11.85 71.2-11.85C72.4-11.85 73.6-12.25 74.6-13.15C76.6-15.05 76.8-18.25 74.9-20.25L58.7-37.75Z"/>
  </g>
  <g id="Heavy-S" transform="matrix(1 0 0 1 2581.15 696)">
   <path d="M110.654-10.6276C109.678-9.65124 108.402-9.15124 107.178-9.15124C105.902-9.15124 104.625-9.65124 103.702-10.6276L54.8625-59.414L6.0762-10.6276C5.0998-9.65124 3.8234-9.15124 2.5998-9.15124C1.3762-9.15124 0.0470066-9.65124-0.876595-10.6276C-2.85299-12.604-2.85299-15.6804-0.876595-17.6332L51.0625-69.5724C51.1625-69.6724 51.2625-69.7724 51.3625-69.9488C52.3389-70.9252 53.6389-71.4252 54.9153-71.4252C56.1917-71.4252 57.4681-70.9252 58.4681-69.9488C58.5681-69.8488 58.6681-69.7488 58.7681-69.5724L110.707-17.6332C112.607-15.7568 112.607-12.604 110.654-10.6276ZM58.6917-37.7736C57.6917-38.8736 56.2389-39.45 54.8389-39.35C53.4625-39.45 52.0625-38.85 50.9861-37.7736L35.0222-20.5096C33.1458-18.5332 33.2458-15.3804 35.3222-13.504C36.2986-12.6276 37.4986-12.204 38.675-12.204C39.975-12.204 41.3278-12.704 42.3278-13.7804L54.8861-27.3152L67.4445-13.7804C68.4209-12.704 69.7209-12.204 71.0973-12.204C72.2973-12.204 73.4737-12.604 74.4501-13.504C76.4265-15.3804 76.6029-18.5332 74.7501-20.5096L58.6917-37.7736Z"/>
  </g>
  <g id="Bold-S" transform="matrix(1 0 0 1 2284.68 696)">
   <path d="M109.932-11.05C108.982-10.1 107.732-9.6 106.482-9.6C105.232-9.6 103.982-10.1 103.032-11.05L54.9325-59.15L6.8325-11.05C5.8825-10.1 4.6325-9.6 3.3825-9.6C2.1325-9.6 0.8825-10.1-0.0675-11.05C-2.0175-13-2.0175-16.05-0.0675-17.95L51.1325-69.15C51.2325-69.25 51.3325-69.35 51.4325-69.5C52.3825-70.45 53.6825-70.95 54.9325-70.95C56.1825-70.95 57.4325-70.45 58.4325-69.5C58.5325-69.4 58.6325-69.3 58.7325-69.15L109.932-17.95C111.832-16.1 111.832-13 109.932-11.05ZM58.6825-37.8C57.6825-38.9 56.2825-39.45 54.8825-39.35C53.5325-39.45 52.1325-38.85 51.0825-37.8L35.3825-20.8C33.5325-18.85 33.6325-15.75 35.6825-13.9C36.6325-13.05 37.8325-12.6 38.9825-12.6C40.2825-12.6 41.5825-13.1 42.5825-14.15L54.9825-27.5L67.3825-14.15C68.3325-13.1 69.6325-12.6 70.9825-12.6C72.1825-12.6 73.3325-13 74.2825-13.9C76.2325-15.75 76.3825-18.85 74.5825-20.8L58.6825-37.8Z"/>
  </g>
  <g id="Semibold-S" transform="matrix(1 0 0 1 1988.14 696)">
   <path d="M109.435-11.3412C108.503-10.4094 107.271-9.9094 106.003-9.9094C104.771-9.9094 103.539-10.4094 102.571-11.3412L54.9807-58.968L7.35393-11.3412C6.42213-10.4094 5.19033-9.9094 3.92213-9.9094C2.65393-9.9094 1.45853-10.4094 0.49033-11.3412C-1.44147-13.273-1.44147-16.3048 0.49033-18.1684L51.1807-68.8588C51.2807-68.9588 51.3807-69.0588 51.4807-69.1906C52.4125-70.1224 53.7125-70.6224 54.9443-70.6224C56.1761-70.6224 57.4079-70.1224 58.4079-69.1906C58.5079-69.0906 58.6079-68.9906 58.7079-68.8588L109.398-18.1684C111.298-16.3366 111.298-13.273 109.435-11.3412ZM58.6761-37.8182C57.6761-38.9182 56.3125-39.45 54.9125-39.35C53.5807-39.45 52.1807-38.85 51.1489-37.8182L35.6309-21.0002C33.7991-19.0684 33.8991-16.0048 35.9309-14.173C36.8627-13.3412 38.0627-12.873 39.1945-12.873C40.4945-12.873 41.7581-13.373 42.7581-14.4048L55.0489-27.6274L67.3397-14.4048C68.2715-13.373 69.5715-12.873 70.9033-12.873C72.1033-12.873 73.2351-13.273 74.1669-14.173C76.0987-16.0048 76.2305-19.0684 74.4669-21.0002L58.6761-37.8182Z"/>
  </g>
  <g id="Medium-S" transform="matrix(1 0 0 1 1691.56 696)">
   <path d="M109.057-11.562C108.139-10.644 106.921-10.144 105.639-10.144C104.421-10.144 103.203-10.644 102.221-11.562L55.0173-58.83L7.7493-11.562C6.8313-10.644 5.6133-10.144 4.3313-10.144C3.0493-10.144 1.8953-10.644 0.9133-11.562C-1.0047-13.48-1.0047-16.498 0.9133-18.334L51.2173-68.638C51.3173-68.738 51.4173-68.838 51.5173-68.956C52.4353-69.874 53.7353-70.374 54.9533-70.374C56.1713-70.374 57.3893-69.874 58.3893-68.956C58.4893-68.856 58.5893-68.756 58.6893-68.638L108.993-18.334C110.893-16.516 110.893-13.48 109.057-11.562ZM58.6713-37.832C57.6713-38.932 56.3353-39.45 54.9353-39.35C53.6173-39.45 52.2173-38.85 51.1993-37.832L35.8193-21.152C34.0013-19.234 34.1013-16.198 36.1193-14.38C37.0373-13.562 38.2373-13.08 39.3553-13.08C40.6553-13.08 41.8913-13.58 42.8913-14.598L55.0993-27.724L67.3073-14.598C68.2253-13.58 69.5253-13.08 70.8433-13.08C72.0433-13.08 73.1613-13.48 74.0793-14.38C75.9973-16.198 76.1153-19.234 74.3793-21.152L58.6713-37.832Z"/>
  </g>
  <g id="Regular-S" transform="matrix(1 0 0 1 1395.01 696)">
   <path d="M108.565-11.85C107.665-10.95 106.465-10.45 105.165-10.45C103.965-10.45 102.765-10.95 101.765-11.85L55.065-58.65L8.265-11.85C7.365-10.95 6.165-10.45 4.865-10.45C3.565-10.45 2.465-10.95 1.465-11.85C-0.435-13.75-0.435-16.75 1.465-18.55L51.265-68.35C51.365-68.45 51.465-68.55 51.565-68.65C52.465-69.55 53.765-70.05 54.965-70.05C56.165-70.05 57.365-69.55 58.365-68.65C58.465-68.55 58.565-68.45 58.665-68.35L108.465-18.55C110.365-16.75 110.365-13.75 108.565-11.85ZM58.665-37.85C57.665-38.95 56.365-39.45 54.965-39.35C53.665-39.45 52.265-38.85 51.265-37.85L36.065-21.35C34.265-19.45 34.365-16.45 36.365-14.65C37.265-13.85 38.465-13.35 39.565-13.35C40.865-13.35 42.065-13.85 43.065-14.85L55.165-27.85L67.265-14.85C68.165-13.85 69.465-13.35 70.765-13.35C71.965-13.35 73.065-13.75 73.965-14.65C75.865-16.45 75.965-19.45 74.265-21.35L58.665-37.85Z"/>
  </g>
  <g id="Light-S" transform="matrix(1 0 0 1 1098.63 696)">
   <path d="M106.219-12.8833C105.352-12.0167 104.186-11.55 102.952-11.55C101.786-11.55 100.619-12.0167 99.6857-12.8833L54.6523-57.9833L9.58567-12.8833C8.719-12.0167 7.55233-11.55 6.319-11.55C5.08567-11.55 3.98567-12.0167 3.05233-12.8833C1.219-14.7167 1.219-17.5833 3.05233-19.35L51.0523-67.35C51.1523-67.45 51.2523-67.55 51.3523-67.65C52.219-68.5167 53.4523-68.9833 54.619-68.9833C55.7857-68.9833 56.9523-68.5167 57.8857-67.65C57.9857-67.55 58.0857-67.45 58.1857-67.35L106.186-19.35C107.952-17.6167 107.952-14.7167 106.219-12.8833ZM58.1523-37.95C57.1857-38.9833 55.919-39.4833 54.5857-39.3833C53.319-39.45 51.9857-38.9167 51.019-37.95L36.3523-22.0167C34.619-20.1833 34.719-17.2833 36.619-15.55C37.4857-14.75 38.619-14.3167 39.719-14.3167C40.9523-14.3167 42.1523-14.8167 43.0857-15.7833L54.719-28.3167L66.3523-15.7833C67.219-14.8167 68.4857-14.3167 69.719-14.3167C70.8523-14.3167 71.9523-14.7167 72.819-15.55C74.6523-17.2833 74.7523-20.1833 73.0857-22.0167L58.1523-37.95Z"/>
  </g>
  <g id="Thin-S" transform="matrix(1 0 0 1 802.355 696)">
   <path d="M103.116-14.25C102.294-13.4274 101.171-13.0048 100.026-13.0048C98.9033-13.0048 97.7807-13.4274 96.9356-14.25L54.1065-57.1016L11.3324-14.25C10.5098-13.4274 9.38719-13.0048 8.24203-13.0048C7.09687-13.0048 5.99687-13.4274 5.15171-14.25C3.40655-15.9952 3.40655-18.6855 5.15171-20.4081L50.7711-66.0274C50.8711-66.1274 50.9711-66.2274 51.0711-66.3274C51.8936-67.15 53.0388-67.5726 54.1614-67.5726C55.284-67.5726 56.4065-67.15 57.2517-66.3274C57.3517-66.2274 57.4517-66.1274 57.5517-66.0274L103.171-20.4081C104.761-18.7629 104.761-15.9952 103.116-14.25ZM57.4743-38.0823C56.5517-39.0274 55.3291-39.5274 54.084-39.4274C52.8614-39.45 51.6162-39.0048 50.6936-38.0823L36.7324-22.8984C35.0872-21.1532 35.1872-18.3855 36.9549-16.7403C37.7775-15.9403 38.8227-15.5952 39.9227-15.5952C41.0678-15.5952 42.2678-16.0952 43.113-17.0177L54.1291-28.9339L65.1453-17.0177C65.9678-16.0952 67.1904-15.5952 68.3356-15.5952C69.3807-15.5952 70.4807-15.9952 71.3033-16.7403C73.0485-18.3855 73.1485-21.1532 71.5259-22.8984L57.4743-38.0823Z"/>
  </g>
  <g id="Ultralight-S" transform="matrix(1 0 0 1 505.867 696)">
   <path d="M101.527-14.95C100.727-14.15 99.627-13.75 98.527-13.75C97.427-13.75 96.327-14.15 95.527-14.95L53.827-56.65L12.227-14.95C11.427-14.15 10.327-13.75 9.227-13.75C8.127-13.75 7.027-14.15 6.227-14.95C4.527-16.65 4.527-19.25 6.227-20.95L50.627-65.35C50.727-65.45 50.827-65.55 50.927-65.65C51.727-66.45 52.827-66.85 53.927-66.85C55.027-66.85 56.127-66.45 56.927-65.65C57.027-65.55 57.127-65.45 57.227-65.35L101.627-20.95C103.127-19.35 103.127-16.65 101.527-14.95ZM57.127-38.15C56.227-39.05 55.027-39.55 53.827-39.45C52.627-39.45 51.427-39.05 50.527-38.15L36.927-23.35C35.327-21.65 35.427-18.95 37.127-17.35C37.927-16.55 38.927-16.25 40.027-16.25C41.127-16.25 42.327-16.75 43.127-17.65L53.827-29.25L64.527-17.65C65.327-16.75 66.527-16.25 67.627-16.25C68.627-16.25 69.727-16.65 70.527-17.35C72.227-18.95 72.327-21.65 70.727-23.35L57.127-38.15Z"/>
  </g>
 </g>
</svg>
